<svg width="165" height="148" xmlns="http://www.w3.org/2000/svg" xmlns:xlink="http://www.w3.org/1999/xlink" xml:space="preserve" overflow="hidden"><defs><clipPath id="clip0"><rect x="0" y="376" width="165" height="148"/></clipPath></defs><g clip-path="url(#clip0)" transform="matrix(1 0 0 1 0 -376)"><path d="M213.224 114.59C207.34 114.59 207.04 114.59 201.456 114.889L200.857 114.191C201.057 107.41 201.156 102.124 201.156 89.558 201.156 72.903 201.156 55.8491 200.159 39.4933L200.658 38.6954C202.353 38.6954 210.431 38.496 212.326 38.496L219.407 38.2965C226.488 38.2965 231.973 38.2965 237.159 39.8922 249.127 43.7817 252.218 53.655 252.218 61.035 252.218 65.3234 251.121 69.5121 249.027 73.1024 242.844 83.4744 230.776 85.7682 218.011 85.7682 216.116 85.7682 214.72 85.6685 213.124 85.6685 213.224 97.2372 213.224 100.728 213.922 113.792L213.224 114.59ZM223.995 76.4933C226.887 76.2938 234.666 75.4959 238.356 68.9137 239.652 66.6199 240.151 63.8275 240.151 61.1348 240.151 58.9407 239.852 56.6469 238.854 54.4528 235.264 47.0728 227.186 46.973 222.598 46.973 217.213 46.973 215.817 47.1725 212.925 47.372L212.825 62.4313 212.925 76.8922C216.714 76.7924 221.102 76.7924 223.995 76.4933M303.38 96.1402C302.183 101.426 299.989 105.615 296.399 109.105 291.712 113.892 285.329 115.687 277.849 115.687 268.175 115.687 262.092 111.997 258.601 108.507 251.321 101.127 251.221 90.1563 251.221 86.566 251.221 82.4771 251.42 72.0054 258.601 64.7251 261.593 61.6334 267.876 57.2453 278.547 57.2453 285.827 57.2453 293.008 59.6388 297.795 64.9245 302.782 70.6092 304.178 78.089 304.377 85.6685 304.377 89.4582 304.178 92.9488 303.38 96.1402M289.517 71.6065C287.523 68.3154 284.032 65.5229 278.048 65.5229 276.054 65.5229 269.97 65.7224 266.181 71.7062 263.288 76.0943 262.989 82.3774 262.989 86.8652 262.989 91.1536 263.089 102.024 271.566 106.313 273.461 107.31 275.755 107.709 277.949 107.709 281.938 107.709 287.124 106.412 290.216 100.528 292.709 95.6415 292.809 88.4609 292.709 86.2668 292.709 83.4744 292.21 76.2938 289.517 71.6065M322.329 29.6199C321.531 43.6819 321.531 57.8437 321.531 71.9057 321.531 95.442 321.83 103.62 322.429 113.792L321.73 114.391C316.544 114.491 315.547 114.59 310.461 114.79L309.962 114.092C310.162 106.512 310.461 96.8383 310.461 76.1941 310.461 61.3342 310.461 45.4771 309.364 31.7143L309.863 31.1159 322.329 29.6199ZM343.073 58.5418C342.774 64.1267 342.375 69.911 342.375 83.7736 342.375 103.72 342.574 106.412 343.073 113.693L342.574 114.291C336.989 114.391 336.092 114.391 330.906 114.69L330.407 113.992C330.706 108.307 331.005 103.321 331.005 91.4528 331.005 70.9084 330.706 67.0189 329.908 60.7358L330.407 59.938 343.073 58.5418ZM363.218 58.7412 362.919 64.2264C366.709 61.5337 372.693 57.345 381.07 57.345 390.345 57.345 393.437 62.6307 394.933 65.0243 397.526 63.1294 405.504 57.345 415.577 57.345 419.566 57.345 424.054 58.6415 427.046 61.6334 432.132 66.4205 432.232 70.5094 432.232 79.7844L432.232 88.9596C432.232 101.226 432.332 104.218 432.83 113.892L432.232 114.69C427.046 114.69 426.248 114.79 421.261 114.989L420.663 114.391 420.962 86.965C420.962 80.1833 420.962 77.7898 420.464 75.3962 419.466 70.8086 417.073 67.0189 410.989 67.0189 408.296 67.0189 403.111 67.717 397.226 72.504 397.526 74.7978 397.625 82.4771 397.625 85.6685L397.625 91.752C397.625 102.722 397.725 106.512 398.323 113.992L397.825 114.79C392.24 114.79 391.642 114.889 386.555 115.089L385.957 114.491C386.356 104.817 386.456 92.4501 386.456 85.6685 386.456 80.283 386.456 77.5903 385.658 74.6981 384.76 71.3073 382.965 67.0189 376.682 67.0189 372.792 67.0189 368.205 68.5148 363.119 72.504L363.119 90.8544C363.119 102.822 363.418 108.008 363.817 114.092L363.218 114.889C357.633 114.889 357.234 114.889 352.049 115.189L351.45 114.59C351.65 110.302 351.849 104.218 351.849 93.1482 351.849 72.903 351.35 66.221 350.652 61.2345L351.151 60.4367 363.218 58.7412ZM484.69 111 483.992 111.798C482.197 112.795 476.412 115.887 466.838 115.887 449.186 115.887 438.216 105.814 438.216 87.0647 438.216 67.1186 450.283 57.345 464.345 57.345 472.822 57.345 478.706 60.9353 481.997 64.7251 488.081 72.0054 487.881 82.6766 487.782 87.3639L486.984 87.9623C474.551 87.8625 462.117 87.8625 449.685 87.9623 449.784 91.752 450.084 96.938 453.774 101.426 458.162 106.712 464.245 107.21 467.636 107.21 470.728 107.21 474.019 106.712 477.011 105.615 481 104.019 483.394 102.024 484.79 100.927L484.79 111ZM475.615 73.4016C473.42 67.5175 468.733 65.0243 463.946 65.0243 457.962 65.0243 450.881 69.1132 449.784 79.8841L476.712 79.7844C476.512 78.2884 476.412 75.8949 475.615 73.4016M504.636 58.5418 504.137 67.717C505.434 64.3261 508.127 57.4447 517.202 57.4447 518.598 57.4447 519.396 57.5445 520.194 57.7439L520.593 58.3423C519.496 63.5283 519.297 64.6253 518.598 69.3127L517.801 69.8113C516.703 69.4124 515.307 68.814 513.512 68.814 511.418 68.814 509.922 69.5121 509.024 70.2102 504.636 73.3019 504.636 78.089 504.636 89.2588 504.636 101.426 504.935 107.709 505.434 113.693L504.836 114.491C499.849 114.491 498.652 114.59 493.466 114.79L492.968 114.191 493.167 88.6604C493.167 71.5067 492.868 67.0189 492.17 60.8356L492.868 60.0377 504.636 58.5418ZM571.555 96.1402C570.359 101.426 568.065 105.615 564.574 109.105 559.887 113.892 553.504 115.687 546.024 115.687 536.35 115.687 530.267 111.997 526.776 108.507 519.496 101.127 519.396 90.1563 519.396 86.566 519.396 82.4771 519.596 72.0054 526.776 64.7251 529.768 61.6334 536.051 57.2453 546.722 57.2453 554.003 57.2453 561.183 59.6388 565.97 64.9245 570.957 70.6092 572.353 78.089 572.553 85.6685 572.553 89.4582 572.353 92.9488 571.555 96.1402M557.693 71.6065C555.698 68.3154 552.208 65.5229 546.224 65.5229 544.229 65.5229 538.146 65.7224 534.456 71.7062 531.563 76.0943 531.264 82.3774 531.264 86.8652 531.264 91.1536 531.364 102.024 539.841 106.313 541.736 107.31 544.03 107.709 546.224 107.709 550.213 107.709 555.299 106.412 558.491 100.528 560.984 95.6415 561.083 88.4609 560.984 86.2668 560.784 83.4744 560.385 76.2938 557.693 71.6065M576.741 102.224C578.636 103.72 583.423 107.41 591.701 107.41 600.178 107.41 603.27 102.722 603.27 99.3315 603.27 94.4447 598.682 92.7493 592.1 90.655L588.709 89.4582C584.321 88.062 574.647 84.9703 574.647 73.9003 574.647 62.8302 584.321 57.345 596.288 57.345 604.267 57.345 609.852 59.6388 611.747 60.3369L612.245 61.1348 611.348 69.6119 610.35 70.0108C607.658 68.3154 603.469 65.7224 596.488 65.7224 594.992 65.7224 593.496 65.8221 591.9 66.221 588.709 67.1186 586.016 69.3127 586.016 72.7035 586.016 77.2911 590.404 78.6873 597.086 80.7817L600.976 81.9784C605.264 83.3747 615.038 86.6658 615.038 98.035 615.038 102.323 613.442 107.21 609.054 110.701 603.369 115.588 595.69 115.887 591.9 115.887 586.116 115.887 581.229 114.79 577.14 113.194 576.641 112.995 576.043 112.795 575.544 112.596L575.046 111.598 576.741 102.224ZM652.836 77.1914C652.836 53.1563 665.701 37.0997 687.941 37.0997 709.183 37.0997 722.647 52.0593 722.647 76.8922 722.647 102.623 708.784 116.086 687.641 116.086 665.402 116.086 652.836 101.027 652.836 77.1914M709.881 76.3935C709.881 72.4043 709.383 61.9326 705.294 55.2507 699.709 46.0755 690.534 45.9757 688.04 45.9757 678.167 45.9757 672.981 51.4609 670.787 55.0512 666.698 61.434 666 71.5067 666 76.2938 666 81.4798 666.798 90.5553 670.388 96.938 674.078 103.221 680.062 107.011 688.04 107.011 703.598 107.21 709.881 92.7493 709.881 76.3935M740.798 58.5418 740.598 63.0296C742.792 61.3342 747.879 57.2453 756.256 57.2453 769.919 57.2453 779.393 68.4151 779.393 83.5741 779.393 100.229 768.323 114.491 745.685 114.491 743.69 114.491 742.394 114.391 740.898 114.291 740.997 127.156 741.197 129.949 741.795 140.022L741.197 140.72 729.927 141.019 729.329 140.42 729.728 116.186 729.628 97.1375C729.528 80.4825 729.528 73.0027 728.232 60.7358L728.73 60.0377 740.798 58.5418ZM745.286 106.612C759.447 106.612 767.625 97.6361 767.625 84.372 767.625 73.2022 761.741 66.3208 753.164 66.3208 747.38 66.3208 743.291 69.1132 740.798 70.8086L740.598 87.3639 740.798 106.313C742.194 106.412 743.491 106.612 745.286 106.612M802.032 42.4852C801.733 49.566 801.633 50.9623 801.633 58.841L813.601 58.5418 814.1 59.2399C813.9 62.0323 813.801 63.2291 813.801 66.9191L813.302 67.5175C807.916 67.4178 807.318 67.3181 801.633 67.3181L801.434 87.2642C801.534 88.5606 801.534 94.6442 801.534 96.1402 801.534 104.019 802.531 106.412 807.817 106.412 810.11 106.412 811.806 105.914 813.003 105.415L813.801 106.013C813.501 109.604 813.501 110.302 813.402 113.394L812.903 113.992C810.609 114.491 808.814 114.989 804.825 114.989 802.232 114.989 795.45 114.989 792.159 109.404 790.264 106.313 790.264 103.72 790.264 91.0539L790.464 67.4178C786.674 67.4178 786.574 67.5175 782.685 67.6172L782.286 67.0189C782.485 63.5283 782.485 62.7305 782.485 59.2399L783.084 58.6415C785.477 58.6415 786.873 58.7412 790.364 58.6415 790.264 56.3477 790.264 54.0539 790.264 51.7601L789.965 45.6765 790.464 44.9784 802.032 42.4852ZM832.35 58.5418C832.051 64.1267 831.652 69.911 831.652 83.7736 831.652 103.72 831.852 106.412 832.35 113.792L831.852 114.391C826.267 114.491 825.369 114.491 820.183 114.79L819.685 114.092C819.984 108.407 820.283 103.42 820.283 91.5526 820.283 71.0081 819.984 67.1186 819.186 60.8356L819.685 60.0377 832.35 58.5418ZM832.55 32.0135C832.45 35.4036 832.45 38.7959 832.55 42.186L831.951 42.8841C826.466 43.0836 825.27 43.1833 819.984 43.7817L819.385 43.1833C819.485 41.7871 819.485 40.2911 819.485 38.8949 819.485 37 819.385 35.2048 819.286 33.1105L820.083 32.5121 832.55 32.0135ZM879.922 111.299 879.124 111.997C876.032 113.493 871.844 115.687 864.264 115.687 848.008 115.687 837.536 104.019 837.536 87.2642 837.536 70.2102 847.809 57.2453 864.464 57.2453 871.445 57.2453 876.431 59.5391 879.224 60.6361L879.623 61.434 878.825 69.911 877.927 70.31C874.437 67.717 870.348 66.1213 866.059 66.1213 857.183 66.1213 849.305 73.0027 849.305 86.7655 849.305 101.426 857.582 106.612 865.96 106.612 873.24 106.612 877.828 102.822 879.822 101.226L879.822 111.299ZM936.27 96.1402C935.073 101.426 932.879 105.615 929.288 109.105 924.601 113.892 918.218 115.687 910.739 115.687 901.065 115.687 894.981 111.997 891.491 108.507 884.21 101.127 884.11 90.1563 884.11 86.566 884.11 82.4771 884.31 72.0054 891.491 64.7251 894.482 61.6334 900.766 57.2453 911.437 57.2453 918.717 57.2453 925.898 59.6388 930.685 64.9245 935.571 70.6092 936.968 78.089 937.267 85.6685 937.267 89.4582 937.067 92.9488 936.27 96.1402M922.507 71.6065C920.512 68.3154 917.022 65.5229 911.038 65.5229 909.043 65.5229 902.96 65.7224 899.27 71.7062 896.377 76.0943 896.078 82.3774 896.078 86.8652 896.078 91.1536 896.178 102.024 904.655 106.313 906.55 107.31 908.844 107.709 911.038 107.709 915.027 107.709 920.213 106.412 923.305 100.528 925.798 95.6415 925.898 88.4609 925.798 86.2668 925.598 83.4744 925.1 76.2938 922.507 71.6065M941.555 102.224C943.45 103.72 948.237 107.41 956.515 107.41 964.992 107.41 968.084 102.722 968.084 99.3315 968.084 94.4447 963.496 92.7493 956.914 90.655L953.523 89.4582C949.135 88.062 939.461 84.9703 939.461 73.9003 939.461 62.8302 949.135 57.345 961.202 57.345 969.181 57.345 974.766 59.6388 976.66 60.3369L977.159 61.1348 976.261 69.6119 975.264 70.0108C972.571 68.3154 968.383 65.7224 961.402 65.7224 959.906 65.7224 958.41 65.8221 956.814 66.221 953.623 67.1186 950.93 69.3127 950.93 72.7035 950.93 77.2911 955.318 78.6873 962 80.7817L965.889 81.9784C970.178 83.3747 979.951 86.6658 979.951 98.035 979.951 102.323 978.356 107.21 973.968 110.701 968.283 115.588 960.604 115.887 956.814 115.887 951.03 115.887 946.143 114.79 942.054 113.194 941.555 112.995 940.957 112.795 940.458 112.596L939.96 111.598 941.555 102.224Z" fill="#2A244B" transform="matrix(1.00174 0 0 1 1.39865 376)"/><path d="M1003.09 64.4259 999.698 64.4259 999.698 47.6712 993.315 47.6712 993.315 44.779 1009.27 44.779 1009.27 47.6712 1003.09 47.6712 1003.09 64.4259ZM1030.02 64.4259 1026.63 64.4259 1026.73 52.3585 1026.92 48.3693 1025.93 51.7601 1021.94 64.5256 1018.85 64.5256 1014.86 51.6604 1013.86 48.3693 1014.06 52.3585 1014.16 64.4259 1010.87 64.4259 1010.87 44.779 1015.56 44.779 1020.44 60.2372 1025.23 44.779 1029.92 44.779 1029.92 64.4259ZM327.914 48.8679C327.914 48.8679 338.186 38.8949 339.482 34.7062 339.482 34.7062 346.563 35.8032 351.949 34.7062 351.949 34.7062 337.687 46.3747 336.491 48.8679 336.391 48.8679 331.205 47.5714 327.914 48.8679M681.757 30.8167C681.757 30.8167 692.03 20.8437 693.326 16.655 693.326 16.655 700.407 17.752 705.792 16.655 705.792 16.655 691.531 28.3234 690.334 30.8167 690.234 30.8167 685.049 29.6199 681.757 30.8167M74.4986 146.604 82.5768 147.102C119.078 147.102 149.197 119.677 154.782 84.7709 154.981 83.7736 149.197 103.52 121.073 115.089 120.774 115.388 120.474 115.588 120.175 115.887 110.102 124.962 96.8383 130.547 82.1779 130.547 65.8221 130.547 51.1617 123.666 40.7898 112.596 40.2911 112.097 39.8922 111.598 39.3935 111.1L39.0943 110.801C34.8059 105.814 31.4151 100.129 29.1213 93.9461L11.7682 93.9461C19.8464 121.97 44.8787 143.113 74.4986 146.604" fill="#2A244B" transform="matrix(1.00174 0 0 1 1.39865 376)"/><path d="M120.873 32.3127C128.852 39.6927 134.736 49.3666 137.429 60.2372 138.564 64.0223 139.135 67.954 139.124 71.9057L139.124 73.9003C139.124 88.1617 133.838 101.226 125.162 111.199 138.226 104.119 148.898 92.7493 155.28 79.2857 155.779 78.2884 155.679 74.9973 155.679 73.6011 155.679 37 127.954 6.98113 92.8491 1.49596 91.9515 1.39623 112.296 11.6685 120.873 32.3127M88.2615 1.19677C85.8679 0.897574 83.4744 0.797844 81.0809 0.698113 61.434 0.997305 43.6819 9.37466 30.8167 22.4394 36.7008 23.5364 41.7871 26.628 45.4771 31.0162L45.5768 30.9164 47.372 29.4205C47.4717 29.3208 47.6712 29.221 47.7709 29.1213 57.345 21.6415 69.4124 17.2534 82.4771 17.2534 95.3423 17.2534 107.21 21.5418 116.784 28.8221 109.604 17.4528 99.9299 7.97844 88.2615 1.19677" fill="#2A244B" transform="matrix(1.00174 0 0 1 1.39865 376)"/><path d="M8.07817 48.7682C8.07817 38.9946 16.0566 31.0162 25.8302 31.0162 35.6038 31.0162 43.5822 38.9946 43.5822 48.7682 43.5822 58.5418 35.6038 66.5202 25.8302 66.5202 16.0566 66.5202 8.07817 58.442 8.07817 48.7682M0.698113 48.7682C0.698113 62.531 11.9677 73.8005 25.7305 73.8005 39.4933 73.8005 50.7628 62.531 50.7628 48.7682 50.7628 35.0054 39.4933 23.7358 25.7305 23.7358 11.9677 23.7358 0.698113 34.9057 0.698113 48.7682" fill="#E71B7E" transform="matrix(1.00174 0 0 1 1.39865 376)"/></g></svg>