<svg width="182" height="163" xmlns="http://www.w3.org/2000/svg" xmlns:xlink="http://www.w3.org/1999/xlink" xml:space="preserve" overflow="hidden"><defs><clipPath id="clip0"><path d="M1635.01 2355.74 1619.98 2369.73 1658.1 2410.68 1673.13 2396.69ZM1523 2278 1680 2278 1680 2435 1523 2435Z" fill-rule="evenodd" clip-rule="evenodd"/></clipPath></defs><g transform="translate(-1523 -2278)"><g clip-path="url(#clip0)"><g><g><path d="M80.1353 14.1643 24.5312 47.8637 24.5312 110.217 80.1353 143.916 135.739 110.217 135.739 47.8637ZM130.949 48.786 107.528 62.9798 56.7145 32.1833 80.1353 17.9896ZM80.1353 79.5809 29.3213 48.786 53.5598 34.0951 104.374 64.8916ZM27.802 51.6873 78.4999 82.415 78.4999 139.1 27.802 108.374ZM81.7707 139.1 81.7707 82.415 132.469 51.6873 132.469 108.374Z" transform="matrix(1 0 0 1 1523 2278)"/><path d="M89.9003 85.2296 88.3123 86.1863 88.3123 100.357 93.266 97.3856 101.443 92.4794 103.031 91.5227 103.031 77.3551 98.0774 80.3266ZM99.7602 89.6714 91.5832 94.5776 91.5832 88.036 99.7602 83.1297Z" transform="matrix(1 0 0 1 1523 2278)"/></g></g></g><g><g><g><path d="M1692.93 2369.22 1684.78 2361.07 1659 2386.85 1633.22 2361.07 1625.07 2369.22 1650.85 2395 1625.07 2420.78 1633.22 2428.92 1659 2403.15 1684.78 2428.92 1692.93 2420.78 1667.15 2395Z" fill="#FF0000"/></g></g></g></g></svg>