<svg width="96" height="96" xmlns="http://www.w3.org/2000/svg" xmlns:xlink="http://www.w3.org/1999/xlink" xml:space="preserve" overflow="hidden"><g transform="translate(-67 -291)"><path d="M126.3 328.3C122.1 328.3 118.8 324.9 118.8 320.8 118.8 316.7 122.2 313.3 126.3 313.3 130.5 313.3 133.8 316.7 133.8 320.8 133.8 324.9 130.4 328.3 126.3 328.3ZM143.2 316.1C142.8 314.7 142.3 313.4 141.6 312.2L143.2 307.5 139.6 303.9 134.9 305.5C133.7 304.8 132.4 304.3 131 303.9L128.8 299.5 123.8 299.5 121.6 303.9C120.2 304.3 118.9 304.8 117.7 305.5L113 303.9 109.4 307.5 111 312.2C110.3 313.4 109.8 314.7 109.4 316.1L105 318.3 105 323.3 109.4 325.5C109.8 326.9 110.3 328.2 111 329.4L109.4 334.1 112.9 337.6 117.6 336C118.8 336.7 120.1 337.2 121.5 337.6L123.7 342 128.7 342 130.9 337.6C132.3 337.2 133.6 336.7 134.8 336L139.5 337.6 143.1 334.1 141.5 329.4C142.2 328.2 142.8 326.8 143.2 325.5L147.6 323.3 147.6 318.3 143.2 316.1Z" fill="#FFFFFF"/><path d="M103.7 364.7C99.5 364.7 96.2 361.3 96.2 357.2 96.2 353 99.6 349.7 103.7 349.7 107.9 349.7 111.2 353.1 111.2 357.2 111.2 361.3 107.9 364.7 103.7 364.7L103.7 364.7ZM119 348.6 120.6 343.9 117 340.3 112.3 341.9C111.1 341.2 109.7 340.7 108.4 340.3L106.2 335.9 101.2 335.9 99 340.3C97.6 340.7 96.3 341.2 95.1 341.9L90.4 340.3 86.9 343.8 88.4 348.5C87.7 349.7 87.2 351.1 86.8 352.4L82.4 354.6 82.4 359.6 86.8 361.8C87.2 363.2 87.7 364.5 88.4 365.7L86.9 370.4 90.4 373.9 95.1 372.4C96.3 373.1 97.6 373.6 99 374L101.2 378.4 106.2 378.4 108.4 374C109.8 373.6 111.1 373.1 112.3 372.4L117 374 120.5 370.4 119 365.8C119.7 364.6 120.2 363.3 120.6 361.9L125 359.7 125 354.7 120.6 352.5C120.2 351.1 119.7 349.8 119 348.6Z" fill="#FFFFFF"/></g></svg>