<svg width="142" height="163" xmlns="http://www.w3.org/2000/svg" xmlns:xlink="http://www.w3.org/1999/xlink" xml:space="preserve" overflow="hidden"><defs><clipPath id="clip0"><path d="M2750.5 2378.21 2837 2378.21 2837 2434 2717 2434 2717 2391.47 2725.91 2401.06ZM2717 2314 2746.88 2314 2746.88 2362.23 2717 2390Z" fill-rule="evenodd" clip-rule="evenodd"/></clipPath></defs><g transform="translate(-2695 -2271)"><g><g><g><path d="M2756.38 2293.34 2739.19 2303.77 2777 2326.69 2794.19 2316.26Z"/><path d="M2814.81 2303.77 2777 2280.85 2760.73 2290.71 2798.54 2313.63Z"/><path d="M2739.19 2312.94 2739.19 2349.6 2774.71 2371.15 2774.71 2330.7 2739.19 2309.16Z"/><path d="M2791.9 2337 2783.88 2341.58 2783.88 2333.56 2791.9 2328.98 2791.9 2337ZM2779.29 2330.7 2779.29 2371.15 2814.81 2349.6 2814.81 2309.16 2779.29 2330.7Z"/></g></g></g><g clip-path="url(#clip0)"><g><g><path d="M115 63.75C115.014 61.0024 112.797 58.764 110.05 58.7504 109.12 58.7457 108.207 59.002 107.415 59.49L86.04 71.7112C86.3286 73.102 86.3196 74.538 86.0137 75.925 84.8924 80.5671 80.7076 83.8152 75.9325 83.75L53.75 83.75 53.75 78.75 76.25 78.75C79.0114 78.75 81.25 76.5114 81.25 73.75 81.25 70.9886 79.0114 68.75 76.25 68.75L46.25 68.75C44.1642 68.7505 42.1202 69.3341 40.3487 70.435L5 87.5 22.5 105C30.5862 96.9137 41.0937 93.75 52.5 93.75L75.8625 93.75C76.9262 93.7498 77.9623 93.4105 78.82 92.7812L113.154 67.6C114.318 66.6605 114.996 65.246 115 63.75Z" transform="matrix(-1 0 0 1 2837 2314)"/><path d="M65 25.8937C57.125 10.2687 43.75 19.6437 43.75 28.3937 43.75 41.5187 65 57.7687 65 57.7687 65 57.7687 86.25 41.5187 86.25 28.3937 86.25 19.6437 72.875 10.2687 65 25.8937Z" transform="matrix(-1 0 0 1 2837 2314)"/></g></g></g><g><g><g><path d="M56.503 10.3687 22.9031 42.1312 6.75936 25.5937 1.18125 30.9093 22.6406 52.9593 28.2843 47.7093 61.8187 15.8812Z" fill="#00B050" transform="matrix(1.01587 0 0 1 2695 2352)"/></g></g></g></g></svg>