<svg width="96" height="96" xmlns="http://www.w3.org/2000/svg" xmlns:xlink="http://www.w3.org/1999/xlink" xml:space="preserve" overflow="hidden"><g transform="translate(-592 -312)"><path d="M618.592 359.973C618.596 359.126 618.651 358.281 618.756 357.441L605.226 357.441 605.226 362.441 618.746 362.441C618.647 361.622 618.596 360.798 618.592 359.973Z"/><path d="M640.006 338.559C640.842 338.563 641.677 338.616 642.506 338.718L642.506 325.161 637.506 325.161 637.506 338.718C638.336 338.616 639.17 338.563 640.006 338.559Z"/><path d="M656.78 346.7 666.367 337.114 662.832 333.58 653.24 343.171C654.553 344.206 655.741 345.391 656.78 346.7Z"/><path d="M626.772 343.171 617.181 333.58 613.646 337.115 623.232 346.7C624.271 345.391 625.459 344.206 626.772 343.171Z"/><path d="M653.277 376.748 662.832 386.3 666.367 382.764 656.808 373.205C655.772 374.519 654.587 375.708 653.277 376.748Z"/><path d="M661.256 357.441C661.471 359.1 661.475 360.781 661.266 362.441L674.786 362.441 674.786 357.441Z"/><path d="M640.006 381.388C639.17 381.384 638.336 381.331 637.506 381.229L637.506 394.721 642.506 394.721 642.506 381.229C641.677 381.331 640.842 381.384 640.006 381.388Z"/><path d="M623.2 373.208 613.642 382.766 617.181 386.3 626.734 376.747C625.423 375.708 624.237 374.52 623.2 373.208Z"/><path d="M657.42 359.973C657.42 369.591 649.623 377.387 640.006 377.387 630.388 377.387 622.592 369.591 622.592 359.973 622.592 350.355 630.388 342.559 640.006 342.559 649.623 342.559 657.42 350.355 657.42 359.973Z"/></g></svg>