<svg width="96" height="96" xmlns="http://www.w3.org/2000/svg" xmlns:xlink="http://www.w3.org/1999/xlink" xml:space="preserve" overflow="hidden"><g transform="translate(-713 -282)"><path d="M739.592 329.973C739.596 329.126 739.651 328.281 739.756 327.441L726.226 327.441 726.226 332.441 739.746 332.441C739.647 331.622 739.596 330.798 739.592 329.973Z" fill="#FFFFFF"/><path d="M761.006 308.559C761.842 308.563 762.677 308.616 763.506 308.718L763.506 295.161 758.506 295.161 758.506 308.718C759.336 308.616 760.17 308.563 761.006 308.559Z" fill="#FFFFFF"/><path d="M777.78 316.7 787.367 307.114 783.832 303.58 774.24 313.171C775.553 314.206 776.741 315.391 777.78 316.7Z" fill="#FFFFFF"/><path d="M747.772 313.171 738.181 303.58 734.646 307.115 744.232 316.7C745.271 315.391 746.459 314.206 747.772 313.171Z" fill="#FFFFFF"/><path d="M774.277 346.748 783.832 356.3 787.367 352.764 777.808 343.205C776.772 344.519 775.587 345.708 774.277 346.748Z" fill="#FFFFFF"/><path d="M782.256 327.441C782.471 329.1 782.475 330.781 782.266 332.441L795.786 332.441 795.786 327.441Z" fill="#FFFFFF"/><path d="M761.006 351.388C760.17 351.384 759.336 351.331 758.506 351.229L758.506 364.721 763.506 364.721 763.506 351.229C762.677 351.331 761.842 351.384 761.006 351.388Z" fill="#FFFFFF"/><path d="M744.2 343.208 734.642 352.766 738.181 356.3 747.734 346.747C746.423 345.708 745.237 344.52 744.2 343.208Z" fill="#FFFFFF"/><path d="M778.42 329.973C778.42 339.591 770.623 347.387 761.006 347.387 751.388 347.387 743.592 339.591 743.592 329.973 743.592 320.355 751.388 312.559 761.006 312.559 770.623 312.559 778.42 320.355 778.42 329.973Z" fill="#FFFFFF"/></g></svg>