<?xml version="1.0" standalone="no"?>
<!DOCTYPE svg PUBLIC "-//W3C//DTD SVG 20010904//EN"
 "http://www.w3.org/TR/2001/REC-SVG-20010904/DTD/svg10.dtd">
<svg version="1.0" xmlns="http://www.w3.org/2000/svg"
 width="225.000000pt" height="225.000000pt" viewBox="0 0 225.000000 225.000000"
 preserveAspectRatio="xMidYMid meet">

<g transform="translate(0.000000,225.000000) scale(0.100000,-0.100000)"
fill="#000000" stroke="none">
<path d="M954 1806 c-68 -16 -137 -48 -201 -95 -43 -31 -55 -51 -30 -51 7 0
28 -11 47 -23 l34 -24 46 29 c101 64 248 77 355 32 33 -14 67 -28 75 -31 27
-12 -56 81 -113 126 -66 51 -113 59 -213 37z"/>
<path d="M1155 1803 c6 -5 31 -25 56 -45 25 -20 63 -63 84 -95 22 -32 54 -77
73 -100 107 -136 121 -317 37 -458 l-35 -57 38 27 c61 46 91 77 128 132 31 46
34 58 34 123 0 177 -113 346 -285 430 -76 37 -152 62 -130 43z"/>
<path d="M629 1650 c-102 -18 -166 -136 -125 -233 17 -42 76 -93 116 -102 58
-13 117 3 159 43 64 61 75 144 30 218 -34 57 -107 86 -180 74z m98 -60 c74
-45 83 -139 19 -197 -83 -76 -206 -19 -206 94 0 45 20 77 64 104 40 24 83 24
123 -1z"/>
<path d="M1539 1174 c-19 -37 -94 -101 -159 -136 -30 -16 -77 -45 -103 -63
-182 -129 -464 -57 -567 145 l-20 40 -60 0 c-33 0 -60 -3 -60 -6 0 -4 15 -36
32 -73 62 -125 205 -239 338 -270 113 -26 257 -8 360 44 101 51 209 177 245
286 19 56 16 73 -6 33z"/>
<path d="M1275 670 c-3 -5 -2 -10 4 -10 5 0 13 5 16 10 3 6 2 10 -4 10 -5 0
-13 -4 -16 -10z"/>
<path d="M510 570 c0 -47 4 -80 10 -80 6 0 10 33 10 80 0 47 -4 80 -10 80 -6
0 -10 -33 -10 -80z"/>
<path d="M1540 640 c0 -5 5 -10 10 -10 6 0 10 5 10 10 0 6 -4 10 -10 10 -5 0
-10 -4 -10 -10z"/>
<path d="M290 565 c0 -43 4 -75 10 -75 6 0 10 11 10 24 0 18 7 26 27 31 38 9
53 23 53 51 0 27 -26 44 -69 44 l-31 0 0 -75z m78 31 c4 -20 -13 -36 -40 -36
-13 0 -18 8 -18 31 0 27 3 30 27 27 18 -2 29 -10 31 -22z"/>
<path d="M555 630 c-3 -5 -2 -10 4 -10 5 0 13 5 16 10 3 6 2 10 -4 10 -5 0
-13 -4 -16 -10z"/>
<path d="M1230 622 c-17 -14 -23 -29 -23 -62 0 -55 31 -85 78 -76 39 8 55 31
55 78 0 68 -60 100 -110 60z m84 -34 c20 -58 -28 -112 -70 -78 -17 15 -19 81
-2 98 22 22 62 10 72 -20z"/>
<path d="M1477 607 c-10 -15 -13 -27 -8 -27 6 0 11 -19 13 -42 3 -38 6 -43 28
-45 14 -1 18 0 8 3 -24 7 -26 84 -3 84 8 0 15 5 15 10 0 6 -6 10 -14 10 -8 0
-16 8 -18 17 -2 14 -7 12 -21 -10z"/>
<path d="M1901 604 c0 -11 3 -14 6 -6 3 7 2 16 -1 19 -3 4 -6 -2 -5 -13z"/>
<path d="M1934 610 c2 -16 20 -14 24 2 3 10 2 10 -6 -1 -7 -9 -11 -10 -15 -2
-4 7 -5 8 -3 1z"/>
<path d="M410 580 c-11 -11 -20 -29 -20 -40 0 -23 33 -60 55 -60 21 0 55 36
55 58 0 27 -29 62 -51 62 -10 0 -28 -9 -39 -20z m66 -25 c7 -27 -9 -55 -31
-55 -22 0 -38 28 -31 55 5 18 13 25 31 25 18 0 26 -7 31 -25z"/>
<path d="M619 592 c-24 -3 -26 -6 -25 -52 1 -66 26 -70 26 -5 0 37 3 45 19 45
23 0 31 -18 26 -59 -3 -23 0 -31 11 -31 12 0 15 10 12 43 -2 37 0 42 19 45 17
3 24 -3 29 -23 3 -14 4 -34 1 -45 -3 -12 0 -20 8 -20 10 0 12 12 8 43 -2 23
-6 47 -8 53 -3 11 -62 14 -126 6z"/>
<path d="M787 582 c-38 -42 1 -114 53 -97 29 9 25 23 -6 17 -16 -3 -30 1 -35
9 -15 24 -10 29 31 29 44 0 52 16 24 44 -21 21 -47 20 -67 -2z m51 -4 c19 -19
14 -28 -18 -28 -16 0 -30 4 -30 8 0 9 21 32 30 32 3 0 11 -5 18 -12z"/>
<path d="M903 592 c-20 -3 -23 -9 -23 -53 0 -27 5 -49 10 -49 6 0 10 18 10 40
0 27 5 42 17 49 22 12 15 18 -14 13z"/>
<path d="M955 586 c-38 -27 -14 -106 32 -106 21 0 53 38 53 63 0 26 -28 57
-51 57 -9 0 -24 -6 -34 -14z m60 -26 c10 -33 -4 -62 -28 -58 -22 3 -34 35 -23
64 8 21 44 17 51 -6z"/>
<path d="M1063 593 c-22 -8 -14 -43 12 -55 33 -15 32 -38 -2 -38 -20 0 -24 -3
-16 -11 7 -7 23 -9 37 -5 36 9 36 53 1 66 -32 12 -32 30 1 30 14 0 23 4 19 10
-6 10 -31 12 -52 3z"/>
<path d="M1365 592 c-10 -10 -5 -162 5 -162 6 0 10 14 10 30 0 25 4 30 25 30
15 0 31 10 42 26 15 24 15 29 2 53 -11 19 -23 26 -47 27 -17 1 -34 -1 -37 -4z
m69 -28 c9 -24 8 -31 -10 -48 -28 -28 -44 -20 -44 24 0 36 3 40 24 40 13 0 27
-7 30 -16z"/>
<path d="M1596 584 c-24 -24 -20 -71 8 -89 13 -8 31 -13 40 -9 25 10 19 20
-11 19 -25 0 -28 3 -28 35 0 31 3 35 28 38 15 2 25 8 22 13 -9 14 -42 11 -59
-7z"/>
<path d="M1687 582 c-23 -25 -21 -58 3 -82 23 -23 39 -25 65 -6 21 15 25 67 5
90 -17 21 -53 20 -73 -2z m66 -24 c8 -28 -9 -58 -33 -58 -21 0 -34 31 -25 60
9 28 51 27 58 -2z"/>
<path d="M1791 586 c-16 -19 -4 -43 25 -50 37 -10 31 -36 -8 -36 -29 -1 -31
-2 -14 -11 13 -8 25 -8 42 0 34 15 31 46 -6 61 -34 14 -31 30 6 30 14 0 22 4
19 10 -9 15 -51 12 -64 -4z"/>
<path d="M550 540 c0 -27 5 -50 10 -50 6 0 10 23 10 50 0 28 -4 50 -10 50 -5
0 -10 -22 -10 -50z"/>
<path d="M1540 540 c0 -27 5 -50 10 -50 6 0 10 23 10 50 0 28 -4 50 -10 50 -5
0 -10 -22 -10 -50z"/>
</g>
</svg>
